HIERARCHY
ROOT pelvis
{
  OFFSET 0 100 0
  CHANNELS 6 Xposition Yposition Zposition Zrotation Xrotation Yrotation
  JOINT pelvis_right_femur
  {
    OFFSET -10.78128 -3.44521 -0.5502486
    CHANNELS 3 Zrotation Xrotation Yrotation
    JOINT right_femur_tibia
    {
      OFFSET -0.8047443 -44.0398 -0.1307829
      CHANNELS 3 Zrotation Xrotation Yrotation
      JOINT right_tibia_foot
      {
        OFFSET 3.006224 -47.83518 -5
        CHANNELS 3 Zrotation Xrotation Yrotation
        End Site
        {
          OFFSET 0 -5 15
        }
      }
    }
  }
  JOINT pelvis_left_femur
  {
    OFFSET 10.78128 -3.44521 -0.5502486
    CHANNELS 3 Zrotation Xrotation Yrotation
    JOINT left_femur_tibia
    {
      OFFSET 0.8047443 -44.0398 -0.1307829
      CHANNELS 3 Zrotation Xrotation Yrotation
      JOINT left_tibia_foot
      {
        OFFSET -4.370144 -48.10324 -4.275266
        CHANNELS 3 Zrotation Xrotation Yrotation
        End Site
        {
          OFFSET 0 -5 15
        }
      }
    }
  }
  JOINT pelvis_spine1
  {
    OFFSET 0 6.468898 -3.129235
    CHANNELS 3 Zrotation Xrotation Yrotation
    JOINT spine1
    {
      OFFSET 0 23.15396 4.99043
      CHANNELS 3 Zrotation Xrotation Yrotation
      JOINT spine2
      {
        OFFSET 0 20.79997 -5.064912
        CHANNELS 3 Zrotation Xrotation Yrotation
        JOINT neck
        {
          OFFSET 0 14.38658 9.616178
          CHANNELS 3 Zrotation Xrotation Yrotation
          End Site
          {
            OFFSET 0 20 0
          }
        }
      }
      JOINT right_manubrium
      {
        OFFSET -5.722621 16.35077 3.967754
        CHANNELS 3 Zrotation Xrotation Yrotation
        JOINT right_clavicle
        {
          OFFSET -13.16364 1.694482 -4.693211
          CHANNELS 3 Zrotation Xrotation Yrotation
          JOINT right_humerus
          {
            OFFSET -28.5034 -0.3100689 -2.792744
            CHANNELS 3 Zrotation Xrotation Yrotation
            JOINT right_radius
            {
              OFFSET -25.15693 0.02248979 -1.271978
              CHANNELS 3 Zrotation Xrotation Yrotation
              End Site
              {
                OFFSET -15 0 0
              }
            }
          }
        }
      }
      JOINT left_manubrium
      {
        OFFSET 5.722621 16.35077 3.967754
        CHANNELS 3 Zrotation Xrotation Yrotation
        JOINT left_clavicle
        {
          OFFSET 13.16364 1.694482 -4.693211
          CHANNELS 3 Zrotation Xrotation Yrotation
          JOINT left_humerus
          {
            OFFSET 29.39168 -1.063119 -2.237045
            CHANNELS 3 Zrotation Xrotation Yrotation
            JOINT left_radius
            {
              OFFSET 24.59957 -0.9528479 0.9047498
              CHANNELS 3 Zrotation Xrotation Yrotation
              End Site
              {
                OFFSET 15 -0 -0
              }
            }
          }
        }
      }
    }
  }
}
MOTION
Frames: 13
Frame Time: 0.0416666666667
-426.6054 105.3008 2949.533 -3.209621 -7.650043 -24.80367 0.7656828 -12.39033 -1.831306 -0 41.9174 -0 -11.48243 7.954682 -0.9832137 -4.810882 5.886466 -9.605292 -0 13.33739 -0 1.33736 -15.63256 17.83477 -1.360976 -0.1002105 2.342648 0.02962744 10.55655 -4.784461 2.190966 25.16611 5.582642 2.123708 -20.0622 8.135814 -2.941564 -18.79996 9.875928 93.38483 19.55077 -15.846 -0 0 7.624154 -21.60336 6.692957 10.17547 5.350795 -21.38521 -5.277621 -88.30724 22.26725 14.46432 0 0 -16.46234 7.66725 13.41602 5.522694
-428.3496 104.8377 2954.186 -2.792946 -7.130721 -24.33472 0.6283176 -17.32259 -3.384286 -0 31.88582 -0 -11.15871 5.880416 -1.137612 -4.94693 8.788545 -9.056816 -0 12.09174 -0 1.369172 -17.74435 16.67428 -1.331189 -0.4126111 1.885203 0.3017416 10.91279 -5.49164 2.076713 25.10581 5.758688 2.270104 -20.29906 8.121739 -3.022645 -18.26589 10.08488 94.70402 19.196 -18.31489 -0 0 5.492954 -21.4612 6.872227 9.451317 5.559737 -22.94095 -5.8592 -86.70299 21.49433 11.91414 0 0 -20.29055 8.961557 14.00171 3.741624
-430.2442 103.8377 2959.007 -2.190604 -6.570156 -23.99224 0.3267069 -21.06569 -4.996603 -0 21.51614 -0 -10.52832 4.557013 -1.133273 -5.203357 11.26953 -8.582098 -0 11.90075 -0 1.072516 -19.59725 15.50135 -1.239557 -0.7357515 1.564759 0.5795468 11.26896 -6.181415 1.957843 25.00465 5.906366 2.384473 -20.56835 8.08816 -3.184178 -17.82354 10.31172 95.95157 18.73517 -20.65021 -0 0 3.610106 -21.33048 7.085892 8.709791 5.765107 -24.44035 -6.40086 -85.35395 20.6214 9.672862 0 0 -24.00339 10.12103 14.51594 2.033728
-432.3604 102.5224 2964.123 -1.580681 -5.944364 -23.74802 0.1904384 -23.66172 -6.304848 -0 12.63495 -0 -9.798305 4.154036 -1.044432 -5.46174 13.39085 -8.129292 -0 13.11109 -0 0.5965493 -20.73537 14.44399 -1.085302 -1.052556 1.403148 0.8441875 11.61965 -6.811119 1.842903 24.86725 6.010253 2.452546 -20.86117 8.038108 -3.424402 -17.52232 10.55274 97.06257 18.21828 -22.69364 -0 0 2.104492 -21.22219 7.323868 8.009046 5.944305 -25.78956 -6.871556 -84.33765 19.70171 7.919847 0 0 -27.32252 11.09505 14.9589 0.479371
-434.7508 101.1857 2969.593 -1.145756 -5.267175 -23.58215 0.5346653 -25.12632 -6.946846 -0 6.561734 -0 -9.199915 4.503603 -0.9923172 -5.603187 15.1097 -7.646912 -0 16.03433 -0 0.08671206 -20.77729 13.62164 -0.8768006 -1.348328 1.402414 1.075121 11.96866 -7.339742 1.741497 24.69946 6.056844 2.462491 -21.16361 7.976506 -3.725964 -17.40866 10.8038 97.98119 17.69771 -24.30332 -0 0 1.086982 -21.15257 7.582511 7.4203 6.071087 -26.90324 -7.252466 -83.69467 18.79177 6.806415 0 0 -29.98137 11.85354 15.34197 -0.8449483
-437.4365 100.1335 2975.403 -1.043199 -4.633697 -23.50453 1.540793 -25.39201 -6.688496 -0 3.906657 -0 -8.908644 5.199434 -1.091584 -5.524661 16.22969 -7.121336 -0 20.92476 -0 -0.3771582 -19.50428 13.1091 -0.6284966 -1.617775 1.547716 1.254555 12.33115 -7.736354 1.662157 24.50472 6.034984 2.405974 -21.45659 7.906368 -4.058425 -17.51979 11.06177 98.66553 17.20811 -25.37859 -0 0 0.6380467 -21.1441 7.875338 7.017628 6.121336 -27.72468 -7.541681 -83.43087 17.93382 6.435553 0 0 -31.778 12.38626 15.68704 -1.874412
-440.385 99.61636 2981.465 -1.361881 -4.21829 -23.56933 3.143876 -24.33175 -5.540579 -0 4.436848 -0 -8.986781 5.711378 -1.404094 -5.160646 16.39008 -6.601894 -0 27.85087 -0 -0.7921623 -16.95143 12.92155 -0.3559492 -1.867794 1.815575 1.370888 12.73057 -7.985326 1.610656 24.28158 5.93474 2.278491 -21.71649 7.824739 -4.383585 -17.87968 11.32568 99.086 16.75817 -25.86996 -0 0 0.8058034 -21.22374 8.237621 6.86578 6.078863 -28.23445 -7.751888 -83.52931 17.14321 6.854311 0 0 -32.60252 12.6986 16.02349 -2.566589
-443.4955 99.76244 2987.624 -2.058004 -4.200613 -23.86669 4.980692 -21.8548 -3.812552 -0 7.062234 -0 -9.376774 5.512359 -1.905571 -4.527004 15.12979 -6.186424 -0 36.45242 -0 -1.186032 -13.49308 13.02484 -0.07218991 -2.113958 2.181884 1.420227 13.19073 -8.087196 1.589296 24.0238 5.74615 2.079421 -21.91714 7.720899 -4.660859 -18.49709 11.59629 99.2207 16.33724 -25.77513 -0 0 1.610772 -21.41812 8.720345 7.008926 5.939343 -28.44496 -7.90227 -83.96161 16.40735 8.054319 0 0 -32.4329 12.80784 16.38078 -2.912131
-446.6162 100.5319 2993.678 -2.911449 -4.636873 -24.46814 6.499015 -18.03797 -2.022969 -0 10.11898 -0 -9.949069 4.254111 -2.469202 -3.759794 12.07045 -5.945469 -0 45.68763 -0 -1.545338 -9.838346 13.35379 0.2127234 -2.373213 2.625065 1.406572 13.726 -8.056772 1.596991 23.72303 5.460213 1.812881 -22.03318 7.578458 -4.850461 -19.36304 11.87411 99.05255 15.92881 -25.13088 -0 0 3.046718 -21.74628 9.37557 7.462232 5.711707 -28.38823 -8.009378 -84.69155 15.69688 9.971216 0 0 -31.31566 12.74072 16.77779 -2.939661
-449.6028 101.7208 2999.434 -3.586481 -5.379436 -25.34056 7.250131 -13.20332 -0.6579859 -0 12.0542 -0 -10.56552 1.982883 -2.897893 -3.058983 7.187088 -5.830002 -0 53.82401 -0 -1.781302 -6.816705 13.82989 0.4901048 -2.657268 3.124763 1.341333 14.33425 -7.919927 1.62969 23.37229 5.073335 1.489508 -22.04433 7.381311 -4.91521 -20.4478 12.15749 98.57122 15.5198 -24.00801 -0 0 5.072447 -22.21223 10.23947 8.208224 5.416579 -28.10663 -8.081719 -85.67266 14.98434 12.48371 0 0 -29.351 12.53008 17.21235 -2.707955
-452.3813 103.0264 3004.785 -3.82833 -6.152483 -26.32251 7.177073 -7.857561 0.06910945 -0 12.19014 -0 -11.10485 -0.8096771 -3.030353 -2.502067 0.9745602 -5.669629 -0 58.88415 -0 -1.792581 -4.981333 14.39284 0.7518615 -2.969351 3.660589 1.241493 14.99612 -7.708582 1.681108 22.96816 4.592904 1.127051 -21.9402 7.121277 -4.824369 -21.70223 12.44214 97.77985 15.10226 -22.50576 -0 0 7.603447 -22.79981 11.31981 9.200918 5.080555 -27.64828 -8.119688 -86.8478 14.26154 15.42628 0 0 -26.68625 12.20692 17.6558 -2.282288
-454.959 104.1375 3009.744 -3.657526 -6.71747 -27.22212 6.631368 -2.527723 0.2652766 -0 10.92227 -0 -11.45859 -3.534249 -2.857736 -1.909963 -5.700347 -5.288274 -0 59.38139 -0 -1.589724 -4.322953 15.02565 0.9918566 -3.304184 4.213458 1.125597 15.68063 -7.453761 1.74414 22.51135 4.039017 0.74689 -21.72436 6.803565 -4.561635 -23.06716 12.72202 96.70384 14.67186 -20.73965 -0 0 10.51586 -23.47343 12.59269 10.3781 4.726967 -27.06264 -8.119082 -88.15475 13.54578 18.62145 0 0 -23.50922 11.78989 18.05784 -1.70472
-457.3805 104.8061 3014.415 -3.345032 -6.945514 -27.93383 6.093535 2.373072 0.2024067 -0 9.190419 -0 -11.54375 -5.995276 -2.531315 -0.9778486 -11.9632 -4.622501 -0 54.89495 -0 -1.324909 -4.363809 15.71531 1.207636 -3.649593 4.766315 1.009247 16.35273 -7.180124 1.812857 22.00787 3.440344 0.367193 -21.41632 6.447383 -4.134931 -24.484 12.98996 95.39943 14.22804 -18.82746 -0 0 13.65891 -24.18575 14.00774 11.67447 4.368703 -26.39526 -8.075334 -89.53084 12.87198 21.90883 0 0 -20.0398 11.28174 18.36327 -0.9815707
